<svg width="110" height="110" viewBox="0 0 110 110" fill="none" xmlns="http://www.w3.org/2000/svg">
<circle cx="55" cy="55" r="55" fill="#343A40"/>
<circle cx="55" cy="55" r="44" fill="#F8F9FA"/>
<path d="M70.8125 41.1874C65.5614 41.1874 60.5413 39.5546 56.2946 36.4664L55.4043 35.8187C55.1636 35.6434 54.8364 35.6434 54.5958 35.8187L53.7054 36.4664C49.4588 39.5546 44.4386 41.1874 39.1875 41.1874C38.8073 41.1874 38.5 41.4954 38.5 41.8749V54.8976C38.5 64.3734 44.0234 73.1376 52.5718 77.2255L54.7037 78.2451C54.7972 78.2897 54.8989 78.3124 55 78.3124C55.1011 78.3124 55.2028 78.2897 55.297 78.2451L57.4289 77.2255C65.9766 73.1376 71.5 64.3734 71.5 54.8976V41.8749C71.5 41.4954 71.1927 41.1874 70.8125 41.1874ZM70.125 54.8976C70.125 63.8467 64.9082 72.1242 56.8349 75.9846L55 76.8632L53.1651 75.9852C45.0917 72.1242 39.875 63.8467 39.875 54.8976V42.5535C45.1681 42.4167 50.2171 40.7041 54.5139 37.5781L55 37.2247L55.4861 37.5781C59.7829 40.7034 64.8319 42.4167 70.125 42.5535V54.8976Z" fill="#232324"/>
<path d="M43.3125 57C43.3125 63.4446 48.5554 68.6875 55 68.6875C61.4446 68.6875 66.6875 63.4446 66.6875 57C66.6875 50.5554 61.4446 45.3125 55 45.3125C48.5554 45.3125 43.3125 50.5554 43.3125 57ZM65.3125 57C65.3125 62.6863 60.6863 67.3125 55 67.3125C49.3137 67.3125 44.6875 62.6863 44.6875 57C44.6875 51.3137 49.3137 46.6875 55 46.6875C60.6863 46.6875 65.3125 51.3137 65.3125 57Z" fill="#232324"/>
<path d="M50.875 54.25V57H50.1875C49.8073 57 49.5 57.308 49.5 57.6875V63.1875C49.5 63.567 49.8073 63.875 50.1875 63.875H59.8125C60.1927 63.875 60.5 63.567 60.5 63.1875V57.6875C60.5 57.308 60.1927 57 59.8125 57H59.125V54.25C59.125 51.9751 57.2749 50.125 55 50.125C52.7251 50.125 50.875 51.9751 50.875 54.25ZM59.125 62.5H50.875V58.375H59.125V62.5ZM57.75 54.25V57H52.25V54.25C52.25 52.7334 53.4834 51.5 55 51.5C56.5166 51.5 57.75 52.7334 57.75 54.25Z" fill="#232324"/>
<path d="M52.25 59.75H53.625V61.125H52.25V59.75Z" fill="#232324"/>
<path d="M57.0625 59.75H58.4375V61.125H57.0625V59.75Z" fill="#232324"/>
</svg>
