<svg width="110" height="110" viewBox="0 0 110 110" fill="none" xmlns="http://www.w3.org/2000/svg">
<circle cx="55" cy="55" r="55" fill="#343A40"/>
<circle cx="55" cy="55" r="44" fill="#F8F9FA"/>
<g clip-path="url(#clip0)">
<path d="M47.8285 68.679C47.8173 68.624 47.801 68.5699 47.7795 68.5175C47.758 68.4659 47.7314 68.4161 47.7005 68.3697C47.6695 68.3224 47.6334 68.2786 47.5939 68.239C47.5544 68.1995 47.5105 68.1634 47.4633 68.1325C47.4169 68.1015 47.367 68.0749 47.3146 68.0534C47.263 68.0319 47.2089 68.0147 47.1539 68.0044C47.043 67.9821 46.9288 67.9821 46.8188 68.0044C46.7638 68.0147 46.7096 68.0319 46.6572 68.0534C46.6056 68.0749 46.5558 68.1015 46.5094 68.1325C46.4621 68.1634 46.4183 68.1995 46.3787 68.239C46.3392 68.2786 46.3031 68.3224 46.2722 68.3697C46.2404 68.4161 46.2146 68.4659 46.1931 68.5175C46.1716 68.5699 46.1545 68.624 46.1441 68.679C46.133 68.734 46.127 68.7908 46.127 68.8466C46.127 68.9025 46.133 68.9592 46.1441 69.0142C46.1545 69.0692 46.1716 69.1233 46.1931 69.1749C46.2146 69.2273 46.2404 69.2772 46.2722 69.3236C46.3031 69.3708 46.3392 69.4147 46.3787 69.4542C46.4183 69.4937 46.4621 69.5298 46.5094 69.5608C46.5558 69.5918 46.6056 69.6184 46.6572 69.6399C46.7096 69.6614 46.7638 69.6786 46.8188 69.6889C46.8738 69.7001 46.9305 69.7061 46.9863 69.7061C47.0422 69.7061 47.0989 69.7001 47.1539 69.6889C47.2089 69.6786 47.263 69.6614 47.3146 69.6399C47.367 69.6184 47.4169 69.5917 47.4633 69.5608C47.5105 69.5298 47.5544 69.4937 47.5939 69.4542C47.6334 69.4147 47.6695 69.3708 47.7005 69.3236C47.7314 69.2772 47.758 69.2273 47.7795 69.1749C47.801 69.1233 47.8173 69.0692 47.8285 69.0142C47.8397 68.9592 47.8457 68.9025 47.8457 68.8466C47.8457 68.7908 47.8397 68.734 47.8285 68.679Z" fill="#232324"/>
<path d="M72.5307 68.9438C72.5273 68.9352 72.5239 68.9267 72.5203 68.9182C71.7293 67.0674 69.8742 66.3833 67.6789 67.1331L61.6918 68.7888C61.3456 67.7405 60.4822 66.8485 59.2614 66.3955C59.2538 66.3927 59.2463 66.3899 59.2386 66.3874L52.6574 64.1537C52.1097 63.4456 50.3938 61.6339 47.1812 61.6339C44.9361 61.6339 42.95 63.1741 41.8137 64.8529H33.8594C33.3847 64.8529 33 65.2376 33 65.7122V76.547C33 77.0216 33.3847 77.4064 33.8594 77.4064H38.969C39.4436 77.4064 39.8283 77.0216 39.8283 76.547V75.805H42.2245C42.6992 75.805 43.0839 75.4203 43.0839 74.9456V74.6983C44.4807 74.8202 44.9402 75.0851 46.223 75.8249C47.2096 76.3938 48.7007 77.2536 51.3859 78.4609C51.3984 78.4665 51.411 78.4718 51.4236 78.4768C51.939 78.6795 52.9464 78.998 54.1885 78.998C55.053 78.998 56.0314 78.8436 57.0357 78.3884L70.2693 73.6501C70.2928 73.6417 70.316 73.6322 70.3387 73.6218C71.6035 73.0399 73.4882 71.3999 72.5307 68.9438ZM38.1096 75.6875H34.7188V66.5715H38.1096V75.6875ZM41.3652 74.0862H39.8283V66.5715H41.3652V74.0862ZM69.652 72.0454L56.4243 76.7815C56.4127 76.7856 56.397 76.7918 56.3856 76.7965C56.374 76.8012 56.3624 76.8062 56.3509 76.8114C54.5087 77.6581 52.7575 77.1512 52.0712 76.8844C49.4775 75.7173 48.0931 74.919 47.0816 74.3357C45.6754 73.5248 44.9977 73.134 43.0839 72.9759V66.0544C43.8985 64.7192 45.4782 63.3526 47.1813 63.3526C50.102 63.3526 51.3396 65.2522 51.3882 65.3289C51.4931 65.4996 51.6545 65.6282 51.8441 65.6926L58.674 68.0106C59.7648 68.4201 60.3413 69.3542 60.0763 70.2858C59.954 70.716 59.6715 71.0728 59.2808 71.2905C58.8935 71.5062 58.4458 71.5596 58.019 71.4415L50.3196 69.0016C49.8669 68.8582 49.3841 69.1088 49.2407 69.5612C49.0973 70.0137 49.3479 70.4966 49.8004 70.6401L57.5132 73.0842C57.5213 73.0868 57.5295 73.0893 57.5377 73.0916C57.8456 73.1792 58.1591 73.2225 58.4708 73.2225C59.0412 73.2225 59.6054 73.0772 60.1174 72.7919C60.9091 72.3507 61.4817 71.6277 61.7295 70.7558C61.7493 70.6862 61.7668 70.6166 61.782 70.547L68.2345 68.7595C69.1664 68.4412 70.3897 68.3265 70.9344 69.5809C71.4981 71.0536 70.0329 71.8637 69.652 72.0454Z" fill="#232324"/>
<path d="M63.8567 46.3045C63.8455 46.2495 63.8292 46.1954 63.8069 46.143C63.7854 46.0914 63.7596 46.0416 63.7278 45.9952C63.6969 45.9479 63.6608 45.9041 63.6213 45.8645C63.5817 45.825 63.5379 45.7889 63.4906 45.758C63.4442 45.727 63.3944 45.7004 63.3428 45.6789C63.2904 45.6574 63.2362 45.6402 63.1821 45.6299C63.0712 45.6076 62.957 45.6076 62.8461 45.6299C62.7911 45.6402 62.737 45.6574 62.6854 45.6789C62.633 45.7004 62.5831 45.727 62.5367 45.758C62.4895 45.7889 62.4456 45.825 62.4061 45.8645C62.3666 45.9041 62.3305 45.9479 62.2995 45.9952C62.2686 46.0416 62.242 46.0914 62.2205 46.143C62.199 46.1954 62.1818 46.2495 62.1715 46.3045C62.1603 46.3595 62.1543 46.4162 62.1543 46.4721C62.1543 46.528 62.1603 46.5847 62.1715 46.6397C62.1818 46.6947 62.199 46.7488 62.2205 46.8004C62.242 46.8528 62.2686 46.9027 62.2995 46.9491C62.3305 46.9963 62.3666 47.0402 62.4061 47.0797C62.4456 47.1192 62.4895 47.1553 62.5367 47.1862C62.5831 47.2172 62.633 47.2438 62.6854 47.2653C62.737 47.2868 62.7911 47.3031 62.8461 47.3143C62.9011 47.3255 62.9578 47.3315 63.0137 47.3315C63.0695 47.3315 63.1262 47.3255 63.1821 47.3143C63.2362 47.3031 63.2904 47.2868 63.3428 47.2653C63.3944 47.2438 63.4442 47.2172 63.4906 47.1862C63.5379 47.1553 63.5817 47.1192 63.6213 47.0797C63.6608 47.0402 63.6969 46.9963 63.7278 46.9491C63.7596 46.9027 63.7854 46.8528 63.8069 46.8004C63.8292 46.7488 63.8455 46.6947 63.8567 46.6397C63.8679 46.5847 63.873 46.528 63.873 46.4721C63.873 46.4162 63.8679 46.3595 63.8567 46.3045Z" fill="#232324"/>
<path d="M76.1406 37.9125H71.0311C70.5564 37.9125 70.1717 38.2972 70.1717 38.7718V39.5138H67.7755C67.3009 39.5138 66.9161 39.8986 66.9161 40.3732V40.6205C65.5193 40.4986 65.0599 40.2337 63.7771 39.494C62.7905 38.9251 61.2994 38.0653 58.6141 36.8579C58.6017 36.8523 58.5891 36.847 58.5763 36.842C57.7022 36.4981 55.4114 35.8214 52.9647 36.9303L49.5065 38.1685L46.5916 35.2536C46.256 34.9181 45.7119 34.9181 45.3763 35.2536L35.8065 44.8234C35.4969 45.133 35.4375 45.6699 35.8065 46.0388L52.1593 62.3916C52.4209 62.6533 53.0337 62.7325 53.3747 62.3916L62.1115 53.6548C62.3387 53.6744 62.5744 53.685 62.8187 53.685C65.0639 53.685 67.0499 52.1448 68.1861 50.4661H76.1406C76.6153 50.4661 77 50.0814 77 49.6067V38.7718C77 38.2972 76.6153 37.9125 76.1406 37.9125ZM45.9839 37.0766L47.9426 39.0353C47.3603 39.3954 46.6872 39.5881 45.9839 39.5881C45.2805 39.5881 44.6074 39.3955 44.0252 39.0353L45.9839 37.0766ZM39.5882 47.3898L37.6296 45.431L39.5882 43.4724C39.9483 44.0546 40.141 44.7277 40.141 45.431C40.141 46.1344 39.9484 46.8075 39.5882 47.3898ZM52.767 60.5685L50.8087 58.6102C52.0043 57.8723 53.5295 57.8723 54.7253 58.6102L52.767 60.5685ZM55.9635 57.3721C54.0644 55.9946 51.4696 55.9946 49.5706 57.3721L40.8263 48.6278C41.4974 47.7049 41.8597 46.5962 41.8597 45.431C41.8597 44.2658 41.4975 43.1572 40.8263 42.2343L42.7872 40.2735C43.7102 40.9446 44.8187 41.3069 45.984 41.3069C47.1492 41.3069 48.2578 40.9446 49.1808 40.2735L51.0395 42.1323C50.6384 42.1915 50.2473 42.3236 49.8826 42.5269C49.2666 42.8701 48.7833 43.3841 48.4823 44.0059C47.513 44.1855 46.6155 44.6548 45.9115 45.3587C44.0016 47.2687 44.0016 50.3765 45.9116 52.2865C46.8665 53.2415 48.121 53.719 49.3755 53.719C50.6299 53.719 51.8844 53.2416 52.8395 52.2865C53.4608 51.6652 53.8961 50.9016 54.1141 50.0694L57.0157 51.0541C56.689 52.5673 57.0236 54.1592 57.926 55.4096L55.9635 57.3721ZM50.7386 48.9234C50.7462 48.9261 50.7538 48.9289 50.7614 48.9315L52.4798 49.5147C52.35 50.1004 52.0564 50.6389 51.6241 51.0712C50.3842 52.3109 48.3668 52.3111 47.127 51.0712C45.8871 49.8314 45.8871 47.814 47.127 46.5741C47.4261 46.2749 47.779 46.041 48.1636 45.8825C48.3222 47.2026 49.2728 48.3794 50.7386 48.9234ZM59.1643 54.1712C58.8326 53.6307 58.6449 53.0137 58.6152 52.3841C59.0269 52.6817 59.53 52.9733 60.1308 53.2047L59.1643 54.1712ZM66.916 49.2641C66.1015 50.5994 64.5218 51.9661 62.8187 51.9661C62.5 51.9661 62.2014 51.9434 61.9222 51.903C61.9211 51.9028 61.92 51.9027 61.9188 51.9025C60.0629 51.6329 59.0646 50.5781 58.7355 50.1604C58.718 50.1347 58.6433 50.037 58.6323 50.0207C58.5321 49.8418 58.368 49.6979 58.1587 49.6269L51.3259 47.3078C50.2356 46.8986 49.6592 45.9649 49.9233 45.0337C49.9235 45.0331 49.9237 45.0325 49.9239 45.0319C49.9241 45.0312 49.9243 45.0304 49.9245 45.0297C50.0473 44.6009 50.3293 44.2452 50.7191 44.028C51.1064 43.8122 51.554 43.7587 51.9809 43.877L59.6803 46.3169C60.1329 46.4605 60.6159 46.2097 60.7592 45.7573C60.9025 45.3048 60.652 44.8218 60.1996 44.6784L54.0761 42.7379L54.0226 42.6845C54.0221 42.684 54.0216 42.6834 54.021 42.6829L50.8508 39.5126L53.5757 38.5369C53.5849 38.5335 53.5962 38.5293 53.6053 38.5256C53.6077 38.5247 53.6121 38.523 53.6144 38.522C53.626 38.5173 53.6376 38.5123 53.649 38.5071C55.4912 37.6604 57.2422 38.1672 57.9286 38.4341C60.5224 39.6012 61.9069 40.3995 62.9184 40.9828C64.3247 41.7937 65.0023 42.1845 66.916 42.3425V49.2641ZM70.1717 48.7472H68.6349V41.2326H70.1717V48.7472ZM75.2813 48.7472H71.8904V39.6312H75.2813V48.7472Z" fill="#232324"/>
</g>
<defs>
<clipPath id="clip0">
<rect width="44" height="44" fill="white" transform="translate(33 35)"/>
</clipPath>
</defs>
</svg>

