<svg width="110" height="110" viewBox="0 0 110 110" fill="none" xmlns="http://www.w3.org/2000/svg">
<circle cx="55" cy="55" r="55" fill="#343A40"/>
<circle cx="55" cy="55" r="44" fill="#F8F9FA"/>
<path d="M63.6104 39.2895C63.5467 39.251 63.477 39.2235 63.4042 39.2079C62.116 37.6896 60.5121 36.4707 58.7044 35.636C56.8967 34.8013 54.9286 34.371 52.9375 34.375C45.3557 34.375 39.1875 40.5432 39.1875 48.125C39.1875 55.7069 45.3557 61.875 52.9375 61.875C55.9683 61.8731 58.9139 60.8716 61.3178 59.0258C61.8661 59.3281 62.4401 59.5812 63.0332 59.782C63.0988 59.8023 63.1672 59.8127 63.2359 59.8127H63.2605C63.3292 59.8127 63.3975 59.8023 63.4632 59.782C63.5604 59.7521 65.8701 59.0238 68.1891 56.8798C70.3251 54.9049 72.8714 51.3058 72.8714 45.375C72.8714 45.2576 72.8413 45.1422 72.7841 45.0397C72.7268 44.9373 72.6443 44.8512 72.5443 44.7896L63.6104 39.2895ZM53.3804 35.7586C55.0261 35.814 56.6439 36.1989 58.1382 36.8906C59.6325 37.5823 60.9729 38.5667 62.08 39.7856L54.3125 44.5672V41.9375C54.3125 41.7786 54.2574 41.6246 54.1567 41.5016C54.0559 41.3787 53.9157 41.2945 53.7598 41.2633L51.1645 40.7443L53.3804 35.7586ZM45.1578 57.7414L47.1625 56.2375C47.2913 56.1409 47.3821 56.0022 47.4191 55.8455C47.4561 55.6888 47.4369 55.524 47.3649 55.38L46.086 52.8221L46.4886 50.0034L46.7994 50.4696L47.458 53.1041C47.4799 53.1917 47.5189 53.2741 47.5726 53.3466C47.6264 53.4192 47.6939 53.4804 47.7713 53.5269L50.9166 55.4142L51.472 60.4127C49.1569 60.1377 46.9673 59.2114 45.1578 57.7414ZM52.9375 60.5C52.9134 60.5 52.8894 60.4993 52.8652 60.4991L52.2458 54.9241C52.2341 54.8189 52.1983 54.7178 52.1411 54.6287C52.0839 54.5396 52.007 54.465 51.9162 54.4105L48.7229 52.4945L48.1041 50.0208C48.0852 49.9443 48.0532 49.8716 48.0096 49.806L46.6346 47.7435C46.5574 47.6276 46.4468 47.538 46.3175 47.4863C46.1882 47.4347 46.0463 47.4236 45.9105 47.4543C45.7747 47.4851 45.6515 47.5564 45.5571 47.6588C45.4627 47.7612 45.4017 47.8898 45.382 48.0276L44.6945 52.8401C44.6747 52.9785 44.6977 53.1197 44.7602 53.2448L45.8785 55.4816L44.1212 56.7997C41.8393 54.4894 40.5606 51.3723 40.5625 48.125C40.5625 41.665 45.5383 36.3462 51.8585 35.7976L49.5592 40.9711C49.5173 41.0653 49.4972 41.1677 49.5003 41.2707C49.5033 41.3737 49.5295 41.4748 49.5769 41.5663C49.6243 41.6579 49.6916 41.7376 49.774 41.7996C49.8563 41.8616 49.9516 41.9043 50.0527 41.9245L52.9375 42.5012V45.375C52.9375 45.5193 52.9829 45.66 53.0673 45.7771C53.1517 45.8941 53.2708 45.9817 53.4077 46.0273L53.6397 46.1046C53.8386 51.6021 56.2608 54.9872 58.3073 56.8797C58.8506 57.3816 59.4312 57.8417 60.044 58.2559C57.9613 59.7149 55.4804 60.4984 52.9375 60.5ZM67.3003 55.8286C66.1232 56.9333 64.7481 57.806 63.2472 58.4008C61.765 57.8157 60.406 56.9572 59.2408 55.8701C56.5094 53.3447 55.0849 49.9436 55.0037 45.7567L63.2482 40.681L71.4927 45.7567C71.412 49.9197 70.0025 53.3065 67.3003 55.8286Z" fill="#232324"/>
<path d="M74.0896 61.8966C73.6216 61.6099 73.0872 61.4496 72.5387 61.4315C71.9902 61.4135 71.4465 61.5382 70.9607 61.7935L66.3673 64.182C66.1725 63.7661 65.8964 63.3934 65.5554 63.0858C65.2143 62.7782 64.8151 62.542 64.3814 62.3911C63.9476 62.2402 63.488 62.1776 63.0297 62.207C62.5714 62.2365 62.1236 62.3573 61.7127 62.5625L54.9322 65.953L45.5641 63.2765C45.5026 63.2589 45.4389 63.25 45.375 63.25H41.25V62.5625C41.25 62.3802 41.1776 62.2053 41.0486 62.0764C40.9197 61.9474 40.7448 61.875 40.5625 61.875H35.0625C34.8802 61.875 34.7053 61.9474 34.5764 62.0764C34.4474 62.2053 34.375 62.3802 34.375 62.5625V72.1875C34.375 72.3699 34.4474 72.5447 34.5764 72.6737C34.7053 72.8026 34.8802 72.875 35.0625 72.875H40.5625C40.7448 72.875 40.9197 72.8026 41.0486 72.6737C41.1776 72.5447 41.25 72.3699 41.25 72.1875V71.7024L56.2014 75.6028C56.3724 75.6473 56.554 75.6243 56.7084 75.5385L75.2709 65.226C75.3782 65.1665 75.4676 65.0794 75.5298 64.9737C75.5921 64.8681 75.625 64.7477 75.625 64.625C75.6273 64.0762 75.487 63.5362 75.2178 63.0579C74.9486 62.5796 74.5599 62.1795 74.0896 61.8966ZM39.875 71.5H35.75V63.25H39.875V71.5ZM56.2819 74.2028L41.25 70.2814V64.625H45.2788L54.8109 67.3486C54.9763 67.3958 55.1535 67.3794 55.3073 67.3024L62.3275 63.7924C62.6017 63.6517 62.9044 63.5756 63.2125 63.57C63.5206 63.5644 63.8259 63.6294 64.1051 63.76C64.5712 63.9708 64.9421 64.3477 65.1456 64.817L57.4329 68.8274C57.2711 68.9115 57.1493 69.0564 57.0943 69.2303C57.0394 69.4042 57.0557 69.5928 57.1398 69.7546C57.2239 69.9165 57.3689 70.0382 57.5428 70.0932C57.7167 70.1482 57.9053 70.1318 58.0671 70.0477L71.5945 63.013C71.8426 62.8841 72.1171 62.8142 72.3967 62.8087C72.6762 62.8031 72.9532 62.8621 73.2063 62.9811C73.4593 63.1 73.6814 63.2757 73.8555 63.4945C74.0296 63.7133 74.1508 63.9693 74.2099 64.2426L56.2819 74.2028Z" fill="#232324"/>
<path d="M62.8882 42.5176L56.7689 46.2848C56.6599 46.352 56.5717 46.4483 56.5144 46.5629C56.4572 46.6775 56.433 46.8058 56.4448 46.9333C56.7356 50.0939 57.9335 52.7075 60.0052 54.7012C60.8712 55.5323 61.8582 56.2272 62.9326 56.7625C63.0272 56.8093 63.1314 56.8337 63.237 56.8338C63.3426 56.8339 63.4469 56.8097 63.5416 56.763C64.6205 56.2278 65.6121 55.5322 66.4826 54.6998C68.5623 52.7052 69.7645 50.0904 70.0555 46.928C70.0673 46.8005 70.0431 46.6722 69.9859 46.5576C69.9286 46.4431 69.8405 46.3468 69.7314 46.2796C68.2503 45.3674 65.779 43.8493 63.6083 42.5171C63.5 42.4506 63.3753 42.4154 63.2482 42.4155C63.1211 42.4156 62.9965 42.4509 62.8882 42.5176ZM68.6412 47.2228C68.318 49.8566 67.2729 52.0366 65.5309 53.7072C64.845 54.3628 64.0739 54.923 63.2383 55.3725C62.4071 54.9234 61.6403 54.3643 60.9587 53.7102C59.2234 52.0402 58.1818 49.8611 57.8592 47.2281L63.2492 43.9098C65.1535 45.079 67.2302 46.3548 68.6412 47.2228Z" fill="#232324"/>
<path d="M60.7014 50.6737L62.0764 52.0487C62.1402 52.1125 62.216 52.1632 62.2994 52.1977C62.3828 52.2323 62.4722 52.25 62.5625 52.25C62.6528 52.25 62.7422 52.2323 62.8256 52.1977C62.909 52.1632 62.9848 52.1125 63.0487 52.0487L66.4862 48.6112C66.6151 48.4822 66.6875 48.3074 66.6875 48.125C66.6875 47.9427 66.6151 47.7678 66.4862 47.6389C66.3572 47.5099 66.1824 47.4375 66 47.4375C65.8177 47.4375 65.6428 47.5099 65.5139 47.6389L62.5625 50.5903L61.6737 49.7014C61.6098 49.6375 61.534 49.5869 61.4506 49.5523C61.3672 49.5178 61.2778 49.5 61.1875 49.5C61.0972 49.5 61.0078 49.5178 60.9244 49.5523C60.841 49.5869 60.7652 49.6375 60.7014 49.7014C60.6375 49.7652 60.5869 49.841 60.5523 49.9244C60.5178 50.0078 60.5 50.0972 60.5 50.1875C60.5 50.2778 60.5178 50.3672 60.5523 50.4506C60.5869 50.534 60.6375 50.6098 60.7014 50.6737Z" fill="#232324"/>
</svg>
