<svg width="25" height="17" viewBox="0 0 25 17" fill="none" xmlns="http://www.w3.org/2000/svg">
<path d="M23.7179 0.166626H1.28208C0.576904 0.166626 0 0.74353 0 1.44866V15.5512C0 16.2563 0.576904 16.8333 1.28208 16.8333H23.718C24.423 16.8333 25 16.2564 25 15.5512V1.44866C25 0.74353 24.4231 0.166626 23.7179 0.166626ZM23.2368 1.1281L13.2375 8.6282C13.0577 8.76501 12.7817 8.85061 12.5 8.84934C12.2182 8.85061 11.9423 8.76501 11.7625 8.6282L1.76313 1.1281H23.2368ZM17.8955 9.12307L23.3442 15.8539C23.3497 15.8606 23.3564 15.8657 23.3622 15.8719H1.63779C1.64355 15.8655 1.65029 15.8606 1.65576 15.8539L7.10449 9.12307C7.27144 8.91667 7.23979 8.61409 7.03301 8.44675C6.82661 8.27981 6.52402 8.31145 6.35703 8.5179L0.961523 15.183V1.72908L11.1858 9.39734C11.5702 9.68357 12.0377 9.80955 12.4999 9.81082C12.9614 9.80984 13.4294 9.68386 13.814 9.39734L24.0383 1.72908V15.1829L18.6429 8.5179C18.4759 8.3115 18.173 8.27976 17.9669 8.44675C17.7602 8.6137 17.7285 8.91667 17.8955 9.12307Z" fill="#343A40"/>
</svg>
