<svg width="36" height="36" viewBox="0 0 36 36" fill="none" xmlns="http://www.w3.org/2000/svg">
<path d="M36 0H0V36H36V0Z" fill="#61A8DE"/>
<path d="M28.3465 7.9468L4.27286 17.328C3.49311 17.6319 3.54035 18.7509 4.34301 18.9879L10.4604 20.7943L12.7434 28.0385C12.9819 28.7952 13.9408 29.0246 14.4959 28.4578L17.6587 25.2284L23.8645 29.7836C24.6239 30.341 25.7055 29.9269 25.8983 29.0048L30.0085 9.35423C30.2097 8.39169 29.2628 7.58974 28.3465 7.9468ZM25.3283 12.3077L14.1462 22.196C14.0348 22.2946 13.9638 22.4311 13.9473 22.5789L13.5167 26.406C13.5027 26.5308 13.328 26.5473 13.2907 26.4274L11.5195 20.7199C11.4383 20.4586 11.5441 20.1755 11.7766 20.0313L24.9814 11.8415C25.2851 11.653 25.596 12.0711 25.3283 12.3077Z" fill="#F3F3F3"/>
</svg>
