<svg width="36" height="36" viewBox="0 0 36 36" fill="none" xmlns="http://www.w3.org/2000/svg">
<path d="M36 0H0V36H36V0Z" fill="#44678D"/>
<path d="M9.32602 10.9557C10.1888 13.0863 11.2822 15.0951 12.7224 16.8985C12.9134 17.1385 13.1541 17.3518 13.4078 17.5255C13.7783 17.78 14.1278 17.6905 14.2785 17.2667C14.4378 16.822 14.584 15.9207 14.5927 15.4537C14.6165 14.2334 14.5892 13.4336 14.5236 12.2148C14.4811 11.4342 14.2036 10.7488 13.0553 10.5419C12.7007 10.4778 12.6678 10.1859 12.8956 9.89471C13.3699 9.28851 14.0306 9.1919 14.7471 9.15367C15.9083 9.09095 17.0737 9.14213 18.2364 9.15367C18.7099 9.15801 19.1864 9.19617 19.6527 9.29783C20.2611 9.43046 20.5868 9.85719 20.6871 10.4511C20.739 10.7574 20.7657 11.0724 20.7584 11.3823C20.7282 12.7143 20.664 14.0456 20.6489 15.3769C20.6424 15.8994 20.6805 16.435 20.7923 16.9439C20.9487 17.6531 21.4316 17.8312 21.9254 17.3187C22.5525 16.6679 23.1053 15.9355 23.6242 15.1917C24.567 13.8388 25.2712 12.354 25.8774 10.8231C26.1909 10.0332 26.431 9.86161 27.2807 9.85948C28.878 9.85585 30.4752 9.85442 32.0725 9.85948C32.3558 9.8609 32.652 9.8876 32.9194 9.97268C33.3533 10.1111 33.5256 10.465 33.4239 10.914C33.1868 11.9664 32.6181 12.8609 32.0091 13.7208C31.0317 15.1003 30.0074 16.4468 29.007 17.8105C28.8795 17.9842 28.7671 18.1694 28.6625 18.3575C28.2884 19.0336 28.3144 19.4127 28.86 19.9756C29.7285 20.8716 30.6583 21.7098 31.4995 22.6302C32.1107 23.2998 32.6765 24.0263 33.1609 24.7911C33.7735 25.7584 33.3951 26.6694 32.2505 26.8316C31.5305 26.9332 28.0132 26.8324 27.8315 26.8316C26.8858 26.8273 26.0569 26.4993 25.3894 25.8571C24.6471 25.1421 23.9724 24.3579 23.2595 23.6119C23.0447 23.387 22.8155 23.1715 22.5683 22.9833C21.9852 22.5386 21.4129 22.6373 21.1404 23.3221C20.9076 23.9103 20.7065 25.4549 20.6971 25.5868C20.6481 26.2766 20.2092 26.7162 19.4365 26.7587C17.2057 26.8798 15.044 26.6312 13.0302 25.5522C11.3234 24.6382 9.96042 23.3459 8.77978 21.8388C6.9043 19.4449 5.42293 16.8136 4.07047 14.1049C4.00135 13.9665 2.63152 11.0516 2.59471 10.9139C2.47235 10.4529 2.58649 10.0125 2.97601 9.8609C3.21884 9.76642 7.73524 9.86058 7.81036 9.86461C8.53103 9.90364 9.02245 10.2077 9.32602 10.9557Z" fill="#F3F3F3"/>
</svg>
