<svg width="36" height="36" viewBox="0 0 36 36" fill="none" xmlns="http://www.w3.org/2000/svg">
<path d="M36 0H0V36H36V0Z" fill="#1BD741"/>
<path d="M5.41058 30.603L7.17397 24.34C6.04001 22.4136 5.44297 20.2217 5.44297 17.9701C5.44297 11.0372 11.0833 5.39685 18.0162 5.39685C24.9491 5.39685 30.5894 11.0372 30.5894 17.9701C30.5894 24.903 24.9491 30.5433 18.0162 30.5433C15.856 30.5433 13.7407 29.9904 11.8694 28.9404L5.41058 30.603ZM12.1996 26.6529L12.5844 26.8879C14.216 27.884 16.0943 28.4105 18.0162 28.4105C23.773 28.4105 28.4565 23.7269 28.4565 17.9701C28.4565 12.2132 23.773 7.52969 18.0162 7.52969C12.2594 7.52969 7.57581 12.2132 7.57581 17.9701C7.57581 19.976 8.14591 21.9239 9.22433 23.6032L9.48351 24.0068L8.46804 27.6135L12.1996 26.6529Z" fill="#F3F3F3"/>
<path d="M14.4842 12.1181L13.6684 12.0736C13.4121 12.0596 13.1607 12.1453 12.967 12.3135C12.5715 12.657 11.9391 13.321 11.7449 14.1863C11.4552 15.4765 11.9028 17.0564 13.0614 18.6363C14.2201 20.2162 16.3792 22.744 20.1972 23.8236C21.4275 24.1715 22.3954 23.9369 23.1421 23.4593C23.7335 23.081 24.1412 22.4737 24.2881 21.7873L24.4184 21.1789C24.4598 20.9855 24.3616 20.7893 24.182 20.7065L21.4247 19.4355C21.2457 19.3531 21.0334 19.4052 20.9131 19.5612L19.8306 20.9645C19.7488 21.0705 19.6089 21.1125 19.4825 21.0681C18.7412 20.8076 16.2581 19.7676 14.8956 17.1431C14.8365 17.0293 14.8512 16.8911 14.935 16.7941L15.9695 15.5973C16.0752 15.4751 16.1019 15.3033 16.0384 15.1548L14.8499 12.3741C14.7866 12.2261 14.6448 12.1269 14.4842 12.1181Z" fill="#F3F3F3"/>
</svg>
